PathFileType	4	(X/Y/Z)	OpenSim_Sub07_EMGBaseline_Gyro.trc
DataRate	CameraRate	NumFrames	NumMarkers	Units	OrigDataRate	OrigDataStartFrame	OrigNumFrames
100	100	13	8	m	100	5122	6828
Frame#	Time	torso_imu_offset_imu	pelvis_imu_offset_imu	tibia_r_imu_offset_imu	femur_r_imu_offset_imu	tibia_l_imu_offset_imu	femur_l_imu_offset_imu	toes_r_imu_offset_imu	toes_l_imu_offset_imu
				X1	Y1	Z1	X2	Y2	Z2	X3	Y3	Z3	X4	Y4	Z4	X5	Y5	Z5	X6	Y6	Z6	X7	Y7	Z7	X8		Y8	Z8	

5122	51.21000000	0.48141800	0.16623200	-0.16281900	-0.39664800	0.07382500	-0.05107000	1.41253200	0.16813900	-0.24638100	0.03048300	-0.86429200	1.91866400	0.58755900	-0.04592700	0.67908300	0.56211500	-0.28246200	0.80632000	-0.22178600	-0.81227900	-3.03683200	0.05979200	-0.11008500	0.00366900
5123	51.22000000	0.47198200	0.15598700	-0.17117000	-0.35126800	0.08753900	-0.01305700	1.50935800	0.25853300	-0.06924800	0.08902300	-0.86499100	1.87269300	0.48517700	-0.05459900	0.61901600	0.78603200	-0.25985200	0.72639700	-2.02973900	1.24751900	-2.86659500	0.10352200	-0.17678100	-0.01098500
5124	51.23000000	0.45766400	0.15410200	-0.17774200	-0.29678400	0.09587800	0.03674300	0.85221900	0.03186800	0.26801000	0.10519000	-0.81450600	1.79287700	0.27244700	-0.07114900	0.61329900	0.89058400	-0.25574900	0.67055700	-2.70805700	2.48728400	-2.77647100	0.12066300	-0.10907300	-0.03506200
5125	51.24000000	0.43296900	0.15645800	-0.18217300	-0.23645400	0.11301200	0.09966000	-0.23831700	-0.34188100	0.51756000	0.15047300	-0.76750500	1.70525000	0.07375200	-0.08380900	0.61108200	0.92375400	-0.25700600	0.64971400	-2.72090700	3.12702500	-2.68497600	0.13633700	-0.19938500	-0.01733300
5126	51.25000000	0.41838600	0.13914000	-0.16968800	-0.19177400	0.12836600	0.17606300	-1.41590600	-0.55986800	0.65440900	0.14321600	-0.74888400	1.61407500	0.04547200	-0.08843000	0.58344000	0.88680400	-0.26212800	0.65978500	-2.44572000	3.49698600	-2.48360500	0.10175600	-0.20134500	-0.00295700
5127	51.26000000	0.41519900	0.11611100	-0.15070000	-0.16087800	0.14648200	0.24627800	-2.35749700	-0.62299300	0.80203900	0.18005900	-0.72281300	1.57817900	0.04863100	-0.08927700	0.53192400	0.76607000	-0.24596400	0.69020700	-1.99888300	3.61255600	-2.20599000	0.12228200	-0.23927700	0.00539400
5128	51.27000000	0.40157200	0.10710600	-0.12718500	-0.13895300	0.14564800	0.30696600	-2.82444500	-0.59831700	1.02621900	0.25754500	-0.63397600	1.57195900	0.17305000	-0.08127900	0.53303100	0.56749700	-0.23031600	0.69999900	-1.36695300	3.59789900	-1.91843200	0.12174800	-0.19352400	-0.00943100
5129	51.28000000	0.38456800	0.10785500	-0.10290700	-0.12011200	0.15220000	0.33657500	-2.93754100	-0.54538100	1.30002200	0.36618200	-0.46184200	1.58135700	0.26775700	-0.04728700	0.54403800	0.35231200	-0.23582800	0.70805700	-0.59375900	3.52301800	-1.63465800	0.14751700	-0.22928700	-0.01768600
5130	51.29000000	0.35809300	0.12113000	-0.08234700	-0.09957600	0.16281000	0.37159000	-2.78145900	-0.52104300	1.58716200	0.57580700	-0.25813200	1.55219900	0.28867100	-0.03161400	0.52689900	0.18845300	-0.24110000	0.72368500	0.09997800	3.48985500	-1.31502800	0.13710200	-0.23633700	-0.02465100
5131	51.30000000	0.32855100	0.13159900	-0.05973900	-0.10164100	0.16598400	0.35635600	-2.52015700	-0.46638800	1.90047400	0.92716300	-0.08060300	1.48590300	0.28732000	-0.02757600	0.46601600	0.02152700	-0.24946700	0.74412500	0.49492600	3.57067300	-0.91675500	0.17378900	-0.24012400	-0.05318200
5132	51.31000000	0.30094500	0.14882400	-0.05115300	-0.09492300	0.16912700	0.33593400	-1.83967100	-0.26740400	2.22986700	1.28078100	0.08949100	1.45148400	0.28422800	-0.01139600	0.44932900	-0.08468200	-0.23866400	0.76224900	0.39667100	3.82531900	-0.47164300	0.18296000	-0.23929500	-0.05255400
5133	51.32000000	0.29700200	0.16306700	-0.05232000	-0.09335900	0.19186000	0.30470000	-1.22903100	-0.01892900	2.59916100	1.46757600	0.17068900	1.39720700	0.27263000	-0.00009500	0.44616100	-0.09707700	-0.24099100	0.78161200	0.23202800	4.07747100	0.00478500	0.20516500	-0.22668500	-0.07300900
5134	51.33000000	0.28852400	0.17186300	-0.04453700	-0.10710800	0.21030800	0.28378200	-0.27638300	0.31690700	2.86914500	1.48763700	0.18629600	1.37108800	0.31779700	0.01053100	0.43514300	-0.05468500	-0.25511800	0.82065100	-0.21892600	4.31368400	0.37439000	0.18799100	-0.27046600	-0.07051400
